<?xml version="1.0" standalone="no"?>
<!DOCTYPE svg PUBLIC "-//W3C//DTD SVG 20010904//EN"
 "http://www.w3.org/TR/2001/REC-SVG-20010904/DTD/svg10.dtd">
<svg version="1.0" xmlns="http://www.w3.org/2000/svg"
 width="300.000000pt" height="300.000000pt" viewBox="0 0 300.000000 300.000000"
 preserveAspectRatio="xMidYMid meet">
<metadata>
Created by potrace 1.11, written by Peter Selinger 2001-2013
</metadata>
<g transform="translate(0.000000,300.000000) scale(0.100000,-0.100000)"
fill="#000000" stroke="none">
<path d="M2334 2676 c-54 -24 -112 -112 -269 -411 -38 -71 -102 -193 -142
-270 -108 -205 -187 -367 -231 -475 -31 -77 -43 -95 -58 -93 -10 2 -57 6 -104
9 -47 3 -86 7 -88 9 -2 1 11 65 27 141 39 180 49 237 57 305 5 51 3 58 -17 73
-24 17 -75 21 -96 8 -6 -4 -24 -43 -38 -87 -30 -91 -82 -190 -117 -221 -39
-37 -149 -104 -243 -149 -109 -52 -247 -97 -384 -125 -147 -30 -212 -35 -434
-35 -196 0 -197 0 -197 -22 0 -18 8 -24 38 -29 49 -9 352 -10 422 0 30 4 73 9
95 12 22 4 49 7 60 9 121 16 295 70 441 135 75 34 229 129 268 165 l29 27 -6
-39 c-8 -51 -16 -91 -27 -134 -10 -34 -12 -36 -87 -53 -326 -77 -715 -309
-853 -510 -63 -93 -90 -207 -69 -292 39 -155 260 -223 454 -141 126 53 237
146 367 307 93 116 172 265 243 461 21 57 42 109 47 115 9 13 143 9 181 -5
l25 -10 -39 -116 c-34 -103 -54 -184 -74 -295 -4 -19 -7 -73 -7 -120 -1 -153
43 -244 130 -271 35 -10 48 -9 85 5 114 43 256 247 332 475 21 65 29 78 39 68
13 -13 173 -158 229 -209 161 -145 461 -338 640 -413 36 -15 37 -15 37 7 0 19
-20 33 -123 85 -183 93 -382 230 -521 358 -6 6 -42 39 -81 74 -38 35 -95 88
-126 116 l-56 53 12 65 c7 36 12 102 11 146 l-2 82 31 -7 c83 -20 154 22 253
145 23 30 42 57 42 62 0 8 -32 29 -44 29 -2 0 -31 -25 -63 -55 -32 -31 -74
-64 -93 -74 -37 -20 -102 -20 -125 -1 -7 6 -20 42 -30 81 -28 115 -49 155 -98
180 l-28 15 64 105 c78 127 133 212 228 349 138 199 206 305 211 326 6 25 -8
45 -45 62 -35 15 -44 15 -83 -2z m-424 -998 c0 -13 58 -87 91 -115 31 -26 29
-17 33 -178 5 -174 5 -174 -64 -128 -30 21 -89 56 -131 78 l-77 40 55 135 c30
74 59 147 65 162 9 26 28 30 28 6z m-636 -388 c-92 -300 -249 -552 -424 -684
-125 -93 -205 -119 -342 -107 -24 2 -74 47 -92 82 -10 19 -14 54 -13 102 3 97
43 180 136 279 90 95 197 171 363 258 134 69 332 149 375 149 l21 1 -24 -80z
m689 -87 l55 -43 -20 -73 c-39 -141 -121 -291 -201 -370 -99 -97 -138 -96
-153 3 -20 127 16 340 102 598 5 18 141 -54 217 -115z"/>
<path d="M1444 2268 c-51 -24 -53 -98 -3 -123 39 -21 64 -19 93 8 52 47 29
110 -45 122 -13 2 -34 -1 -45 -7z"/>
</g>
</svg>
